<svg xmlns="http://www.w3.org/2000/svg" xmlns:xlink="http://www.w3.org/1999/xlink" width="1300" zoomAndPan="magnify" viewBox="0 0 974.88 749.999995" height="700" preserveAspectRatio="xMidYMid meet" version="1.0">
	<defs>
		<g />
	</defs>
	<g fill="#ffffff" fill-opacity="1">
		<g transform="translate(208.697377, 260.209437)">
			<g>
				<path d="M 32.375 -19.546875 C 31.820312 -26.429688 31.359375 -33.316406 30.984375 -40.203125 C 30.609375 -47.085938 30.515625 -53.878906 30.703125 -60.578125 C 30.703125 -67.648438 30.703125 -74.671875 30.703125 -81.640625 C 30.703125 -88.617188 30.703125 -95.460938 30.703125 -102.171875 C 30.703125 -106.078125 30.28125 -108.304688 29.4375 -108.859375 C 28.601562 -109.421875 26.328125 -109.050781 22.609375 -107.75 C 20.003906 -106.632812 17.398438 -105.75 14.796875 -105.09375 C 12.191406 -104.445312 9.492188 -104.304688 6.703125 -104.671875 C 5.765625 -104.671875 4.832031 -104.765625 3.90625 -104.953125 C 2.976562 -105.140625 2.328125 -105.789062 1.953125 -106.90625 C 1.765625 -108.019531 1.992188 -108.90625 2.640625 -109.5625 C 3.296875 -110.21875 4 -110.820312 4.75 -111.375 C 7.539062 -113.613281 10.5625 -115.382812 13.8125 -116.6875 C 17.070312 -117.988281 20.46875 -119.007812 24 -119.75 C 27.726562 -120.5 29.914062 -121.242188 30.5625 -121.984375 C 31.21875 -122.722656 31.640625 -124.957031 31.828125 -128.6875 C 32.378906 -137.25 33.070312 -145.671875 33.90625 -153.953125 C 34.75 -162.234375 36.195312 -170.554688 38.25 -178.921875 C 40.851562 -189.347656 45.269531 -197.210938 51.5 -202.515625 C 57.738281 -207.816406 66.253906 -210.75 77.046875 -211.3125 C 86.722656 -212.050781 96.164062 -211.488281 105.375 -209.625 C 114.582031 -207.769531 123.75 -205.632812 132.875 -203.21875 C 135.664062 -202.46875 136.96875 -200.421875 136.78125 -197.078125 C 136.59375 -195.398438 135.984375 -194.328125 134.953125 -193.859375 C 133.929688 -193.398438 132.679688 -193.078125 131.203125 -192.890625 C 126.171875 -192.703125 121.1875 -192.929688 116.25 -193.578125 C 111.320312 -194.234375 106.347656 -194.929688 101.328125 -195.671875 C 98.347656 -196.046875 95.367188 -196.421875 92.390625 -196.796875 C 89.410156 -197.171875 86.4375 -197.539062 83.46875 -197.90625 C 80.863281 -198.28125 78.675781 -197.910156 76.90625 -196.796875 C 75.132812 -195.679688 73.691406 -194.003906 72.578125 -191.765625 C 71.273438 -189.160156 70.296875 -186.554688 69.640625 -183.953125 C 68.992188 -181.347656 68.484375 -178.648438 68.109375 -175.859375 C 66.804688 -167.296875 65.875 -158.6875 65.3125 -150.03125 C 64.757812 -141.382812 64.390625 -132.6875 64.203125 -123.9375 C 64.203125 -121.144531 64.476562 -119.46875 65.03125 -118.90625 C 65.59375 -118.351562 67.175781 -118.078125 69.78125 -118.078125 C 76.664062 -117.890625 83.410156 -118.070312 90.015625 -118.625 C 96.628906 -119.1875 103.191406 -120.585938 109.703125 -122.828125 C 111.003906 -123.191406 112.257812 -123.515625 113.46875 -123.796875 C 114.675781 -124.078125 115.929688 -124.125 117.234375 -123.9375 C 119.660156 -123.375 120.960938 -122.164062 121.140625 -120.3125 C 121.328125 -118.820312 120.582031 -117.519531 118.90625 -116.40625 C 117.425781 -115.46875 115.894531 -114.71875 114.3125 -114.15625 C 112.726562 -113.601562 111.097656 -113.140625 109.421875 -112.765625 C 103.097656 -111.097656 96.722656 -109.9375 90.296875 -109.28125 C 83.878906 -108.632812 77.507812 -108.21875 71.1875 -108.03125 C 67.644531 -107.84375 65.59375 -107.46875 65.03125 -106.90625 C 64.476562 -106.351562 64.203125 -104.304688 64.203125 -100.765625 C 64.015625 -85.140625 64.289062 -69.507812 65.03125 -53.875 C 65.78125 -38.238281 66.617188 -22.609375 67.546875 -6.984375 C 67.734375 -5.304688 67.828125 -3.582031 67.828125 -1.8125 C 67.828125 -0.0390625 67.828125 1.675781 67.828125 3.34375 C 67.640625 5.769531 67.035156 7.492188 66.015625 8.515625 C 64.992188 9.535156 63.273438 10.140625 60.859375 10.328125 C 58.066406 10.515625 55.226562 10.65625 52.34375 10.75 C 49.457031 10.84375 46.523438 10.890625 43.546875 10.890625 C 40.566406 10.890625 38.472656 10.421875 37.265625 9.484375 C 36.054688 8.554688 35.171875 6.507812 34.609375 3.34375 C 34.054688 -0.375 33.59375 -4.140625 33.21875 -7.953125 C 32.84375 -11.765625 32.5625 -15.628906 32.375 -19.546875 Z M 32.375 -19.546875 " />
			</g>
		</g>
	</g>
	<g fill="#ffffff" fill-opacity="1">
		<g transform="translate(339.614882, 260.209437)">
			<g>
				<path d="M 116.953125 -81.234375 C 118.816406 -80.117188 119.46875 -79 118.90625 -77.875 C 118.351562 -76.757812 117.703125 -75.644531 116.953125 -74.53125 C 110.441406 -64.851562 103.789062 -55.269531 97 -45.78125 C 90.207031 -36.289062 83.367188 -26.800781 76.484375 -17.3125 C 72.390625 -11.914062 67.550781 -8.097656 61.96875 -5.859375 C 56.382812 -3.628906 50.660156 -2.695312 44.796875 -3.0625 C 38.941406 -3.4375 33.40625 -4.785156 28.1875 -7.109375 C 22.976562 -9.441406 18.703125 -12.5625 15.359375 -16.46875 C 10.328125 -22.789062 6.320312 -29.535156 3.34375 -36.703125 C 0.375 -43.867188 -1.765625 -51.453125 -3.078125 -59.453125 C -3.628906 -62.242188 -4.046875 -65.082031 -4.328125 -67.96875 C -4.609375 -70.851562 -4.65625 -73.785156 -4.46875 -76.765625 C -4.28125 -85.691406 -3.207031 -94.484375 -1.25 -103.140625 C 0.695312 -111.796875 3.8125 -120.21875 8.09375 -128.40625 C 10.507812 -133.0625 13.4375 -137.390625 16.875 -141.390625 C 20.320312 -145.390625 24.375 -148.691406 29.03125 -151.296875 C 34.238281 -154.273438 39.445312 -155.945312 44.65625 -156.3125 C 49.875 -156.6875 55.085938 -155.109375 60.296875 -151.578125 C 65.503906 -148.035156 69.035156 -143.753906 70.890625 -138.734375 C 72.753906 -133.710938 73.222656 -128.128906 72.296875 -121.984375 C 70.617188 -111.003906 66.753906 -101.789062 60.703125 -94.34375 C 54.660156 -86.90625 46.242188 -81.601562 35.453125 -78.4375 C 31.910156 -77.507812 30.234375 -75.367188 30.421875 -72.015625 C 30.609375 -64.015625 31.492188 -56.148438 33.078125 -48.421875 C 34.660156 -40.703125 36.660156 -33.125 39.078125 -25.6875 C 40.191406 -22.332031 41.960938 -19.351562 44.390625 -16.75 C 47.734375 -13.207031 51.453125 -12.832031 55.546875 -15.625 C 57.035156 -16.5625 58.335938 -17.632812 59.453125 -18.84375 C 60.566406 -20.050781 61.6875 -21.304688 62.8125 -22.609375 C 69.507812 -30.242188 75.925781 -38.109375 82.0625 -46.203125 C 88.207031 -54.296875 94.257812 -62.4375 100.21875 -70.625 C 101.332031 -72.300781 102.492188 -74.019531 103.703125 -75.78125 C 104.910156 -77.550781 106.164062 -79.273438 107.46875 -80.953125 C 108.957031 -82.628906 110.351562 -83.46875 111.65625 -83.46875 C 112.957031 -83.46875 114.722656 -82.722656 116.953125 -81.234375 Z M 34.890625 -115.28125 C 33.773438 -110.8125 32.796875 -106.296875 31.953125 -101.734375 C 31.117188 -97.179688 30.703125 -92.488281 30.703125 -87.65625 C 31.628906 -87.46875 32.421875 -87.460938 33.078125 -87.640625 C 33.734375 -87.828125 34.335938 -88.109375 34.890625 -88.484375 C 39.359375 -91.085938 43.171875 -95.085938 46.328125 -100.484375 C 49.492188 -105.878906 51.632812 -111.648438 52.75 -117.796875 C 53.875 -123.941406 53.691406 -129.429688 52.203125 -134.265625 C 52.015625 -134.453125 51.921875 -134.6875 51.921875 -134.96875 C 51.921875 -135.25 51.828125 -135.476562 51.640625 -135.65625 C 51.078125 -136.78125 50.46875 -137.851562 49.8125 -138.875 C 49.164062 -139.894531 48.191406 -140.40625 46.890625 -140.40625 C 45.585938 -140.59375 44.5625 -140.21875 43.8125 -139.28125 C 43.070312 -138.351562 42.425781 -137.332031 41.875 -136.21875 C 40.570312 -132.6875 39.3125 -129.195312 38.09375 -125.75 C 36.882812 -122.3125 35.816406 -118.820312 34.890625 -115.28125 Z M 34.890625 -115.28125 " />
			</g>
		</g>
	</g>
	<g fill="#ffffff" fill-opacity="1">
		<g transform="translate(444.851353, 260.209437)">
			<g>
				<path d="M -9.765625 -92.953125 C -9.953125 -96.671875 -10.140625 -100.34375 -10.328125 -103.96875 C -10.515625 -107.601562 -10.703125 -110.722656 -10.890625 -113.328125 C -10.515625 -127.847656 -9.441406 -141.664062 -7.671875 -154.78125 C -5.910156 -167.90625 -2.890625 -180.789062 1.390625 -193.4375 C 3.441406 -199.582031 5.910156 -205.539062 8.796875 -211.3125 C 11.679688 -217.082031 15.171875 -222.476562 19.265625 -227.5 C 22.609375 -231.96875 26.421875 -235.734375 30.703125 -238.796875 C 34.984375 -241.867188 40.007812 -243.960938 45.78125 -245.078125 C 52.664062 -246.390625 58.988281 -245.507812 64.75 -242.4375 C 70.519531 -239.363281 74.800781 -234.570312 77.59375 -228.0625 C 79.644531 -223.21875 80.945312 -218.328125 81.5 -213.390625 C 82.0625 -208.460938 82.15625 -203.488281 81.78125 -198.46875 C 80.664062 -184.320312 77.503906 -170.550781 72.296875 -157.15625 C 66.335938 -142.269531 59.867188 -127.707031 52.890625 -113.46875 C 45.910156 -99.226562 37.585938 -85.691406 27.921875 -72.859375 C 26.054688 -70.253906 25.21875 -67.554688 25.40625 -64.765625 C 25.957031 -55.640625 27.164062 -46.65625 29.03125 -37.8125 C 30.894531 -28.976562 33.5 -20.28125 36.84375 -11.71875 C 36.84375 -11.351562 36.9375 -10.984375 37.125 -10.609375 C 37.3125 -10.234375 37.5 -9.859375 37.6875 -9.484375 C 42.707031 0.191406 49.3125 1.304688 57.5 -6.140625 C 59.550781 -8.191406 61.410156 -10.425781 63.078125 -12.84375 C 64.753906 -15.257812 66.335938 -17.675781 67.828125 -20.09375 C 72.484375 -28.28125 76.578125 -36.703125 80.109375 -45.359375 C 83.648438 -54.015625 87.375 -62.53125 91.28125 -70.90625 C 91.65625 -71.644531 91.976562 -72.382812 92.25 -73.125 C 92.53125 -73.875 92.859375 -74.625 93.234375 -75.375 C 94.347656 -77.789062 95.972656 -79.273438 98.109375 -79.828125 C 100.253906 -80.390625 102.441406 -79.925781 104.671875 -78.4375 C 105.609375 -77.875 106.078125 -77.035156 106.078125 -75.921875 C 105.890625 -74.992188 105.703125 -74.25 105.515625 -73.6875 C 101.609375 -63.457031 97.742188 -53.222656 93.921875 -42.984375 C 90.109375 -32.753906 85.320312 -22.984375 79.5625 -13.671875 C 78.4375 -12.003906 77.269531 -10.378906 76.0625 -8.796875 C 74.851562 -7.210938 73.691406 -5.675781 72.578125 -4.1875 C 68.296875 1.207031 63.410156 4.925781 57.921875 6.96875 C 52.429688 9.019531 46.335938 9.675781 39.640625 8.9375 C 31.078125 8.1875 24.097656 4.460938 18.703125 -2.234375 C 15.171875 -6.703125 12.097656 -11.445312 9.484375 -16.46875 C 6.878906 -21.488281 4.648438 -26.695312 2.796875 -32.09375 C -0.742188 -41.957031 -3.488281 -51.960938 -5.4375 -62.109375 C -7.394531 -72.253906 -8.835938 -82.535156 -9.765625 -92.953125 Z M 22.609375 -94.625 C 22.609375 -94.070312 22.703125 -93.421875 22.890625 -92.671875 C 23.078125 -91.929688 23.726562 -91.1875 24.84375 -90.4375 C 25.769531 -91.925781 26.601562 -93.367188 27.34375 -94.765625 C 28.09375 -96.160156 28.84375 -97.507812 29.59375 -98.8125 C 33.3125 -105.507812 36.75 -112.300781 39.90625 -119.1875 C 43.070312 -126.070312 46.144531 -133.050781 49.125 -140.125 C 52.851562 -149.425781 55.878906 -158.914062 58.203125 -168.59375 C 60.523438 -178.269531 61.96875 -188.132812 62.53125 -198.1875 C 62.71875 -203.03125 62.4375 -207.726562 61.6875 -212.28125 C 60.945312 -216.84375 59.457031 -221.359375 57.21875 -225.828125 C 53.6875 -232.898438 49.6875 -233.175781 45.21875 -226.65625 C 43.726562 -224.425781 42.425781 -222.144531 41.3125 -219.8125 C 40.195312 -217.488281 39.175781 -215.117188 38.25 -212.703125 C 31.175781 -193.535156 26.519531 -174.132812 24.28125 -154.5 C 22.050781 -134.875 21.492188 -114.914062 22.609375 -94.625 Z M 22.609375 -94.625 " />
			</g>
		</g>
	</g>
	<g fill="#ffffff" fill-opacity="1">
		<g transform="translate(536.96814, 260.209437)">
			<g>
				<path d="M 82.0625 -81.78125 C 84.300781 -80.851562 85.375 -79.691406 85.28125 -78.296875 C 85.1875 -76.898438 84.765625 -75.457031 84.015625 -73.96875 C 80.671875 -66.15625 77.273438 -58.25 73.828125 -50.25 C 70.390625 -42.25 66.898438 -34.242188 63.359375 -26.234375 C 62.242188 -23.816406 61.128906 -21.441406 60.015625 -19.109375 C 58.898438 -16.785156 57.691406 -14.414062 56.390625 -12 C 53.222656 -6.601562 48.800781 -2.878906 43.125 -0.828125 C 37.445312 1.210938 31.628906 1.582031 25.671875 0.28125 C 19.722656 -1.019531 14.890625 -4.1875 11.171875 -9.21875 C 8.742188 -12.375 6.832031 -15.71875 5.4375 -19.25 C 4.039062 -22.789062 2.878906 -26.421875 1.953125 -30.140625 C 0.460938 -35.910156 -0.507812 -41.773438 -0.96875 -47.734375 C -1.4375 -53.691406 -1.578125 -59.273438 -1.390625 -64.484375 C -1.578125 -76.015625 -0.878906 -87.082031 0.703125 -97.6875 C 2.285156 -108.300781 4.46875 -118.816406 7.25 -129.234375 C 7.4375 -130.359375 7.765625 -131.476562 8.234375 -132.59375 C 8.703125 -133.707031 9.117188 -134.820312 9.484375 -135.9375 C 10.421875 -138.539062 12.191406 -139.753906 14.796875 -139.578125 C 15.347656 -139.578125 15.8125 -139.578125 16.1875 -139.578125 C 16.5625 -139.578125 16.9375 -139.578125 17.3125 -139.578125 C 22.894531 -139.390625 26.195312 -138.78125 27.21875 -137.75 C 28.238281 -136.726562 28.472656 -133.519531 27.921875 -128.125 C 27.171875 -116.957031 26.421875 -105.882812 25.671875 -94.90625 C 24.929688 -83.925781 24.75 -72.945312 25.125 -61.96875 C 25.3125 -55.820312 25.492188 -49.722656 25.671875 -43.671875 C 25.859375 -37.628906 26.515625 -31.632812 27.640625 -25.6875 C 28.003906 -23.257812 28.554688 -20.929688 29.296875 -18.703125 C 30.046875 -16.472656 30.976562 -14.332031 32.09375 -12.28125 C 34.519531 -8 37.035156 -7.8125 39.640625 -11.71875 C 40.753906 -13.207031 41.726562 -14.789062 42.5625 -16.46875 C 43.40625 -18.144531 44.289062 -19.820312 45.21875 -21.5 C 49.875 -30.425781 54.476562 -39.398438 59.03125 -48.421875 C 63.59375 -57.453125 68.203125 -66.4375 72.859375 -75.375 C 73.046875 -75.925781 73.273438 -76.429688 73.546875 -76.890625 C 73.828125 -77.359375 74.0625 -77.875 74.25 -78.4375 C 75.550781 -80.851562 76.617188 -82.203125 77.453125 -82.484375 C 78.296875 -82.765625 79.832031 -82.53125 82.0625 -81.78125 Z M 23.453125 -154.359375 C 15.628906 -154.171875 11.625 -157.242188 11.4375 -163.578125 C 11.257812 -167.109375 12.285156 -170.128906 14.515625 -172.640625 C 16.742188 -175.160156 19.441406 -176.421875 22.609375 -176.421875 C 26.515625 -176.421875 29.628906 -175.488281 31.953125 -173.625 C 34.285156 -171.757812 35.453125 -169.15625 35.453125 -165.8125 C 35.453125 -158.363281 31.453125 -154.546875 23.453125 -154.359375 Z M 23.453125 -154.359375 " />
			</g>
		</g>
	</g>
	<g fill="#ffffff" fill-opacity="1">
		<g transform="translate(611.498989, 260.209437)">
			<g>
				<path d="M 78.71875 -94.078125 C 77.601562 -89.609375 76.253906 -85.1875 74.671875 -80.8125 C 73.085938 -76.4375 71.273438 -72.015625 69.234375 -67.546875 C 76.117188 -66.617188 81.515625 -65.316406 85.421875 -63.640625 C 89.328125 -61.960938 92.628906 -59.3125 95.328125 -55.6875 C 98.023438 -52.0625 100.863281 -46.804688 103.84375 -39.921875 C 105.695312 -39.921875 107.320312 -40.382812 108.71875 -41.3125 C 110.113281 -42.238281 111.554688 -43.078125 113.046875 -43.828125 C 115.835938 -45.128906 118.628906 -46.570312 121.421875 -48.15625 C 124.210938 -49.738281 127.097656 -50.992188 130.078125 -51.921875 C 133.617188 -53.222656 136.128906 -52.195312 137.609375 -48.84375 C 139.097656 -45.5 138.265625 -42.894531 135.109375 -41.03125 C 130.828125 -38.613281 126.59375 -36.101562 122.40625 -33.5 C 118.21875 -30.894531 114.078125 -28.378906 109.984375 -25.953125 C 105.703125 -23.722656 102.816406 -20.191406 101.328125 -15.359375 C 98.535156 -6.796875 94.488281 0.925781 89.1875 7.8125 C 83.882812 14.695312 77.507812 20.742188 70.0625 25.953125 C 54.988281 36.003906 39.265625 37.125 22.890625 29.3125 C 16.929688 26.519531 13.578125 22.75 12.828125 18 C 12.085938 13.257812 14.140625 8.65625 18.984375 4.1875 C 21.398438 1.769531 24.097656 -0.273438 27.078125 -1.953125 C 30.054688 -3.628906 33.125 -5.210938 36.28125 -6.703125 C 42.238281 -9.304688 48.191406 -12.003906 54.140625 -14.796875 C 60.097656 -17.585938 66.148438 -20.285156 72.296875 -22.890625 C 77.691406 -25.117188 80.113281 -28.84375 79.5625 -34.0625 C 79.375 -36.289062 79.234375 -38.519531 79.140625 -40.75 C 79.046875 -42.988281 78.625 -45.222656 77.875 -47.453125 C 76.757812 -50.242188 75.78125 -51.820312 74.9375 -52.1875 C 74.101562 -52.5625 72.476562 -51.914062 70.0625 -50.25 C 67.457031 -48.570312 64.898438 -46.707031 62.390625 -44.65625 C 59.878906 -42.613281 57.878906 -40.289062 56.390625 -37.6875 C 54.710938 -34.894531 52.289062 -34.054688 49.125 -35.171875 C 43.175781 -37.398438 39.175781 -38.929688 37.125 -39.765625 C 35.082031 -40.609375 34.335938 -42.050781 34.890625 -44.09375 C 35.453125 -46.144531 36.660156 -49.867188 38.515625 -55.265625 C 41.867188 -65.316406 45.125 -75.320312 48.28125 -85.28125 C 51.445312 -95.238281 53.960938 -105.425781 55.828125 -115.84375 C 56.753906 -120.5 57.171875 -125.101562 57.078125 -129.65625 C 56.984375 -134.21875 56.847656 -138.828125 56.671875 -143.484375 C 56.671875 -145.523438 56.203125 -147.570312 55.265625 -149.625 C 52.109375 -155.382812 48.015625 -156.21875 42.984375 -152.125 C 41.128906 -150.644531 39.363281 -148.925781 37.6875 -146.96875 C 36.007812 -145.007812 34.519531 -143.007812 33.21875 -140.96875 C 27.632812 -132.59375 23.398438 -123.707031 20.515625 -114.3125 C 17.628906 -104.914062 15.816406 -95.285156 15.078125 -85.421875 C 14.703125 -80.390625 14.515625 -75.363281 14.515625 -70.34375 C 14.515625 -65.320312 14.703125 -60.296875 15.078125 -55.265625 C 15.078125 -53.960938 15.078125 -52.613281 15.078125 -51.21875 C 15.078125 -49.820312 13.957031 -48.941406 11.71875 -48.578125 C 8.5625 -48.203125 6.238281 -48.335938 4.75 -48.984375 C 3.257812 -49.640625 2.234375 -51.175781 1.671875 -53.59375 C 0.179688 -58.988281 -0.789062 -64.523438 -1.25 -70.203125 C -1.71875 -75.878906 -1.765625 -81.507812 -1.390625 -87.09375 C -0.835938 -95.09375 0.273438 -102.90625 1.953125 -110.53125 C 3.628906 -118.164062 6.140625 -125.707031 9.484375 -133.15625 C 11.160156 -137.0625 13.207031 -140.828125 15.625 -144.453125 C 18.050781 -148.085938 20.753906 -151.484375 23.734375 -154.640625 C 28.941406 -159.847656 34.566406 -163.429688 40.609375 -165.390625 C 46.660156 -167.347656 53.222656 -167.113281 60.296875 -164.6875 C 67.554688 -162.082031 72.90625 -158.082031 76.34375 -152.6875 C 79.789062 -147.289062 81.976562 -141.054688 82.90625 -133.984375 C 83.644531 -127.097656 83.597656 -120.351562 82.765625 -113.75 C 81.929688 -107.144531 80.582031 -100.585938 78.71875 -94.078125 Z M 39.640625 23.734375 C 45.597656 20.753906 51.039062 17.171875 55.96875 12.984375 C 60.894531 8.796875 64.941406 3.628906 68.109375 -2.515625 C 58.054688 0.648438 48.753906 4.742188 40.203125 9.765625 C 37.410156 11.441406 35.175781 13.675781 33.5 16.46875 C 32.75 17.582031 32.28125 18.695312 32.09375 19.8125 C 31.914062 20.9375 32.289062 21.960938 33.21875 22.890625 C 34.707031 24.753906 36.847656 25.035156 39.640625 23.734375 Z M 39.640625 23.734375 " />
			</g>
		</g>
	</g>
	<g fill="#ffffff" fill-opacity="1">
		<g transform="translate(142.121269, 650.454298)">
			<g>
				<path d="M 55.265625 -187.296875 C 55.265625 -185.804688 55.265625 -184.222656 55.265625 -182.546875 C 55.265625 -180.878906 55.265625 -178.929688 55.265625 -176.703125 C 57.316406 -178.003906 58.804688 -179.351562 59.734375 -180.75 C 60.660156 -182.144531 61.59375 -183.398438 62.53125 -184.515625 C 65.320312 -188.234375 68.34375 -191.8125 71.59375 -195.25 C 74.851562 -198.695312 78.53125 -201.722656 82.625 -204.328125 C 84.851562 -206.003906 87.175781 -207.445312 89.59375 -208.65625 C 92.019531 -209.863281 94.535156 -210.9375 97.140625 -211.875 C 104.765625 -214.101562 111.925781 -213.867188 118.625 -211.171875 C 125.332031 -208.472656 130.546875 -203.679688 134.265625 -196.796875 C 136.128906 -193.816406 137.570312 -190.695312 138.59375 -187.4375 C 139.613281 -184.1875 140.40625 -180.882812 140.96875 -177.53125 C 142.820312 -167.851562 143.65625 -158.175781 143.46875 -148.5 C 143.289062 -138.820312 142.734375 -129.144531 141.796875 -119.46875 C 140.492188 -106.8125 139.285156 -94.203125 138.171875 -81.640625 C 137.054688 -69.085938 136.40625 -56.484375 136.21875 -43.828125 C 136.03125 -37.867188 136.351562 -32.003906 137.1875 -26.234375 C 138.03125 -20.460938 139.660156 -14.789062 142.078125 -9.21875 C 145.617188 -1.582031 149.4375 2.789062 153.53125 3.90625 C 157.625 5.019531 163.113281 3.253906 170 -1.390625 C 176.132812 -5.671875 181.15625 -10.832031 185.0625 -16.875 C 188.976562 -22.925781 192.425781 -29.304688 195.40625 -36.015625 C 197.632812 -41.222656 199.675781 -46.570312 201.53125 -52.0625 C 203.394531 -57.550781 205.164062 -63.085938 206.84375 -68.671875 C 207.21875 -69.597656 207.632812 -70.617188 208.09375 -71.734375 C 208.5625 -72.847656 209.539062 -73.59375 211.03125 -73.96875 C 216.988281 -75.082031 219.035156 -72.847656 217.171875 -67.265625 C 214.566406 -58.148438 211.539062 -49.171875 208.09375 -40.328125 C 204.65625 -31.492188 200.425781 -22.984375 195.40625 -14.796875 C 193.914062 -12.191406 192.191406 -9.722656 190.234375 -7.390625 C 188.273438 -5.066406 186.273438 -2.789062 184.234375 -0.5625 C 178.460938 5.394531 172.132812 9.253906 165.25 11.015625 C 158.363281 12.785156 150.921875 13.019531 142.921875 11.71875 C 134.921875 10.226562 128.5 6.039062 123.65625 -0.84375 C 118.820312 -7.726562 115.472656 -15.03125 113.609375 -22.75 C 111.742188 -30.46875 110.722656 -38.421875 110.546875 -46.609375 C 110.359375 -59.078125 110.726562 -71.546875 111.65625 -84.015625 C 112.582031 -96.484375 113.882812 -108.859375 115.5625 -121.140625 C 117.050781 -132.304688 118.023438 -143.472656 118.484375 -154.640625 C 118.953125 -165.804688 118.441406 -176.972656 116.953125 -188.140625 C 116.398438 -191.117188 115.75 -193.628906 115 -195.671875 C 113.332031 -200.328125 110.914062 -203.117188 107.75 -204.046875 C 104.582031 -204.984375 100.953125 -204.148438 96.859375 -201.546875 C 93.878906 -199.304688 90.945312 -196.882812 88.0625 -194.28125 C 85.1875 -191.675781 82.628906 -188.882812 80.390625 -185.90625 C 72.203125 -175.113281 65.546875 -163.757812 60.421875 -151.84375 C 55.304688 -139.9375 52.191406 -127.191406 51.078125 -113.609375 C 49.410156 -96.117188 47.785156 -78.578125 46.203125 -60.984375 C 44.617188 -43.398438 43.640625 -25.769531 43.265625 -8.09375 C 43.078125 -4.375 42.519531 -1.953125 41.59375 -0.828125 C 40.664062 0.285156 38.335938 0.929688 34.609375 1.109375 C 28.285156 1.484375 23.863281 1.34375 21.34375 0.6875 C 18.832031 0.0390625 17.34375 -1.488281 16.875 -3.90625 C 16.414062 -6.320312 16 -9.953125 15.625 -14.796875 C 13.957031 -34.703125 13.492188 -54.65625 14.234375 -74.65625 C 14.984375 -94.664062 16.285156 -114.628906 18.140625 -134.546875 C 19.078125 -143.847656 19.914062 -153.148438 20.65625 -162.453125 C 21.394531 -171.765625 22.328125 -181.070312 23.453125 -190.375 C 23.816406 -193.539062 24.28125 -196.425781 24.84375 -199.03125 C 25.582031 -203.125 26.414062 -205.539062 27.34375 -206.28125 C 28.28125 -207.03125 30.796875 -207.5 34.890625 -207.6875 C 38.609375 -208.050781 42.609375 -208.234375 46.890625 -208.234375 C 49.492188 -208.421875 51.210938 -208.140625 52.046875 -207.390625 C 52.890625 -206.648438 53.5 -204.882812 53.875 -202.09375 C 54.25 -199.675781 54.523438 -197.210938 54.703125 -194.703125 C 54.890625 -192.191406 55.078125 -189.722656 55.265625 -187.296875 Z M 55.265625 -187.296875 " />
			</g>
		</g>
	</g>
	<g fill="#ffffff" fill-opacity="1">
		<g transform="translate(341.986841, 650.454298)">
			<g>
				<path d="M 149.90625 -78.15625 C 152.507812 -77.039062 153.945312 -76.109375 154.21875 -75.359375 C 154.5 -74.617188 154.082031 -72.851562 152.96875 -70.0625 C 147.570312 -57.96875 142.035156 -46.007812 136.359375 -34.1875 C 130.679688 -22.375 124.773438 -10.609375 118.640625 1.109375 C 117.335938 3.722656 115.847656 6.332031 114.171875 8.9375 C 112.492188 11.539062 110.628906 13.957031 108.578125 16.1875 C 104.859375 20.28125 100.394531 22.742188 95.1875 23.578125 C 89.976562 24.421875 84.953125 23.769531 80.109375 21.625 C 75.273438 19.488281 71.554688 16.003906 68.953125 11.171875 C 66.160156 5.773438 64.066406 0.144531 62.671875 -5.71875 C 61.273438 -11.582031 60.109375 -17.492188 59.171875 -23.453125 C 58.242188 -29.035156 57.640625 -34.570312 57.359375 -40.0625 C 57.078125 -45.550781 56.753906 -51.085938 56.390625 -56.671875 C 56.390625 -57.222656 56.390625 -57.914062 56.390625 -58.75 C 56.390625 -59.59375 55.921875 -60.382812 54.984375 -61.125 C 53.492188 -58.332031 51.957031 -55.632812 50.375 -53.03125 C 48.800781 -50.425781 47.175781 -47.726562 45.5 -44.9375 C 44.007812 -42.332031 42.378906 -39.820312 40.609375 -37.40625 C 38.847656 -34.988281 36.941406 -32.566406 34.890625 -30.140625 C 30.796875 -25.867188 25.679688 -23.734375 19.546875 -23.734375 C 11.722656 -23.734375 6.320312 -27.265625 3.34375 -34.328125 C 1.851562 -37.867188 0.738281 -41.5 0 -45.21875 C -0.738281 -48.9375 -1.203125 -52.660156 -1.390625 -56.390625 C -1.765625 -64.390625 -1.394531 -72.203125 -0.28125 -79.828125 C 0.832031 -87.460938 2.972656 -94.910156 6.140625 -102.171875 C 9.859375 -110.722656 14.832031 -117.976562 21.0625 -123.9375 C 27.300781 -129.894531 35.257812 -133.800781 44.9375 -135.65625 C 48.289062 -136.21875 51.5 -136.3125 54.5625 -135.9375 C 57.632812 -135.570312 60.753906 -135.015625 63.921875 -134.265625 C 65.785156 -133.890625 67.925781 -134.078125 70.34375 -134.828125 C 74.0625 -136.316406 77.921875 -137.015625 81.921875 -136.921875 C 85.921875 -136.828125 89.878906 -136.6875 93.796875 -136.5 C 94.722656 -136.5 95.367188 -136.171875 95.734375 -135.515625 C 96.109375 -134.867188 96.390625 -134.171875 96.578125 -133.421875 C 97.140625 -131.753906 97.46875 -130.035156 97.5625 -128.265625 C 97.65625 -126.492188 97.703125 -124.769531 97.703125 -123.09375 C 97.515625 -108.207031 97.046875 -93.367188 96.296875 -78.578125 C 95.554688 -63.785156 94.722656 -48.945312 93.796875 -34.0625 C 93.421875 -28.476562 93.140625 -22.941406 92.953125 -17.453125 C 92.765625 -11.960938 92.765625 -6.425781 92.953125 -0.84375 C 92.953125 0.644531 93.046875 2.226562 93.234375 3.90625 C 93.421875 5.582031 93.882812 7.257812 94.625 8.9375 C 96.113281 8.375 97.273438 7.488281 98.109375 6.28125 C 98.953125 5.070312 99.742188 4.003906 100.484375 3.078125 C 104.953125 -3.441406 109.046875 -10.191406 112.765625 -17.171875 C 116.492188 -24.148438 120.125 -31.175781 123.65625 -38.25 C 126.820312 -44.195312 129.847656 -50.191406 132.734375 -56.234375 C 135.617188 -62.285156 138.550781 -68.289062 141.53125 -74.25 C 143.007812 -77.226562 144.164062 -78.898438 145 -79.265625 C 145.84375 -79.640625 147.476562 -79.269531 149.90625 -78.15625 Z M 63.921875 -114.453125 C 64.296875 -118.359375 63.410156 -121.144531 61.265625 -122.8125 C 59.128906 -124.488281 56.203125 -124.863281 52.484375 -123.9375 C 50.992188 -123.375 49.597656 -122.675781 48.296875 -121.84375 C 46.992188 -121.007812 45.78125 -120.03125 44.65625 -118.90625 C 42.425781 -116.863281 40.472656 -114.675781 38.796875 -112.34375 C 37.117188 -110.019531 35.539062 -107.648438 34.0625 -105.234375 C 28.476562 -96.484375 24.566406 -87.316406 22.328125 -77.734375 C 20.097656 -68.148438 18.890625 -58.242188 18.703125 -48.015625 C 18.703125 -47.265625 18.65625 -46.472656 18.5625 -45.640625 C 18.46875 -44.804688 18.515625 -44.015625 18.703125 -43.265625 C 18.890625 -41.585938 18.796875 -39.722656 18.421875 -37.671875 C 18.046875 -35.628906 19.070312 -34.332031 21.5 -33.78125 C 23.539062 -33.21875 25.117188 -33.820312 26.234375 -35.59375 C 27.359375 -37.363281 28.289062 -38.988281 29.03125 -40.46875 C 35.351562 -50.894531 41.164062 -61.550781 46.46875 -72.4375 C 51.78125 -83.320312 56.851562 -94.253906 61.6875 -105.234375 C 62.800781 -108.023438 63.546875 -111.097656 63.921875 -114.453125 Z M 63.921875 -114.453125 " />
			</g>
		</g>
	</g>
	<g fill="#ffffff" fill-opacity="1">
		<g transform="translate(485.744891, 650.454298)">
			<g>
				<path d="M 1.953125 -33.5 C 0.0859375 -44.851562 -1.210938 -56.15625 -1.953125 -67.40625 C -2.703125 -78.664062 -2.703125 -89.691406 -1.953125 -100.484375 C -2.328125 -111.648438 -2.046875 -122.535156 -1.109375 -133.140625 C -0.179688 -143.753906 0.929688 -154.363281 2.234375 -164.96875 C 2.796875 -168.320312 2.796875 -170.273438 2.234375 -170.828125 C 1.671875 -171.390625 -0.375 -171.671875 -3.90625 -171.671875 C -6.507812 -171.671875 -9.160156 -171.671875 -11.859375 -171.671875 C -14.554688 -171.671875 -17.207031 -171.671875 -19.8125 -171.671875 C -21.300781 -171.859375 -22.789062 -172.085938 -24.28125 -172.359375 C -25.769531 -172.640625 -26.421875 -173.992188 -26.234375 -176.421875 C -26.234375 -178.648438 -25.90625 -180.226562 -25.25 -181.15625 C -24.601562 -182.09375 -23.070312 -182.742188 -20.65625 -183.109375 C -17.125 -183.671875 -13.585938 -184.179688 -10.046875 -184.640625 C -6.515625 -185.109375 -2.976562 -185.4375 0.5625 -185.625 C 4.28125 -186 6.507812 -188.046875 7.25 -191.765625 C 8 -195.304688 8.882812 -198.75 9.90625 -202.09375 C 10.925781 -205.445312 12 -208.796875 13.125 -212.140625 C 14.425781 -215.867188 16.9375 -217.640625 20.65625 -217.453125 C 23.257812 -217.265625 25.816406 -217.21875 28.328125 -217.3125 C 30.835938 -217.40625 33.304688 -217.453125 35.734375 -217.453125 C 38.523438 -217.265625 40.242188 -216.796875 40.890625 -216.046875 C 41.546875 -215.304688 41.875 -213.539062 41.875 -210.75 C 42.0625 -206.09375 41.96875 -201.347656 41.59375 -196.515625 C 41.21875 -192.796875 41.304688 -190.609375 41.859375 -189.953125 C 42.421875 -189.304688 44.660156 -188.984375 48.578125 -188.984375 C 56.390625 -189.160156 64.25 -189.53125 72.15625 -190.09375 C 80.0625 -190.65625 87.925781 -190.75 95.75 -190.375 C 99.09375 -190.375 102.484375 -190.375 105.921875 -190.375 C 109.367188 -190.375 112.863281 -190.1875 116.40625 -189.8125 C 119.382812 -189.625 121.289062 -188.972656 122.125 -187.859375 C 122.957031 -186.742188 123.191406 -184.789062 122.828125 -182 C 122.453125 -179.945312 121.519531 -178.832031 120.03125 -178.65625 C 118.726562 -178.46875 117.519531 -178.28125 116.40625 -178.09375 C 115.289062 -177.90625 114.078125 -177.8125 112.765625 -177.8125 C 101.972656 -177.25 91.132812 -176.6875 80.25 -176.125 C 69.363281 -175.570312 58.429688 -174.925781 47.453125 -174.1875 C 43.546875 -174 41.21875 -173.578125 40.46875 -172.921875 C 39.726562 -172.273438 39.078125 -169.90625 38.515625 -165.8125 C 37.398438 -155.757812 36.515625 -145.660156 35.859375 -135.515625 C 35.210938 -125.378906 34.519531 -115.285156 33.78125 -105.234375 C 33.03125 -93.878906 32.5625 -82.570312 32.375 -71.3125 C 32.1875 -60.0625 32.1875 -48.757812 32.375 -37.40625 C 32.5625 -30.894531 33.164062 -24.472656 34.1875 -18.140625 C 35.21875 -11.816406 36.476562 -5.488281 37.96875 0.84375 C 38.519531 3.257812 39.351562 5.769531 40.46875 8.375 C 42.332031 12.09375 44.285156 14.09375 46.328125 14.375 C 48.378906 14.65625 50.800781 13.210938 53.59375 10.046875 C 54.707031 8.929688 55.679688 7.722656 56.515625 6.421875 C 57.359375 5.117188 58.15625 3.816406 58.90625 2.515625 C 62.8125 -3.992188 66.019531 -10.691406 68.53125 -17.578125 C 71.039062 -24.472656 73.597656 -31.363281 76.203125 -38.25 C 78.253906 -43.644531 80.160156 -48.992188 81.921875 -54.296875 C 83.691406 -59.597656 85.507812 -64.945312 87.375 -70.34375 C 87.738281 -71.457031 88.109375 -72.570312 88.484375 -73.6875 C 88.859375 -74.8125 89.789062 -75.375 91.28125 -75.375 C 95 -75.550781 98.160156 -74.617188 100.765625 -72.578125 C 101.328125 -72.015625 101.609375 -71.40625 101.609375 -70.75 C 101.609375 -70.101562 101.515625 -69.503906 101.328125 -68.953125 C 97.796875 -56.847656 94.351562 -44.796875 91 -32.796875 C 87.644531 -20.796875 82.992188 -9.210938 77.046875 1.953125 C 75.929688 4.179688 74.535156 6.414062 72.859375 8.65625 C 67.648438 16.28125 61.226562 20.976562 53.59375 22.75 C 45.96875 24.519531 37.875 24.101562 29.3125 21.5 C 26.144531 20.5625 23.441406 18.882812 21.203125 16.46875 C 18.972656 14.050781 17.023438 11.351562 15.359375 8.375 C 11.816406 1.863281 8.972656 -4.925781 6.828125 -12 C 4.691406 -19.070312 3.066406 -26.238281 1.953125 -33.5 Z M 1.953125 -33.5 " />
			</g>
		</g>
	</g>
	<g fill="#ffffff" fill-opacity="1">
		<g transform="translate(573.11627, 650.454298)">
			<g>
				<path d="M 149.90625 -78.15625 C 152.507812 -77.039062 153.945312 -76.109375 154.21875 -75.359375 C 154.5 -74.617188 154.082031 -72.851562 152.96875 -70.0625 C 147.570312 -57.96875 142.035156 -46.007812 136.359375 -34.1875 C 130.679688 -22.375 124.773438 -10.609375 118.640625 1.109375 C 117.335938 3.722656 115.847656 6.332031 114.171875 8.9375 C 112.492188 11.539062 110.628906 13.957031 108.578125 16.1875 C 104.859375 20.28125 100.394531 22.742188 95.1875 23.578125 C 89.976562 24.421875 84.953125 23.769531 80.109375 21.625 C 75.273438 19.488281 71.554688 16.003906 68.953125 11.171875 C 66.160156 5.773438 64.066406 0.144531 62.671875 -5.71875 C 61.273438 -11.582031 60.109375 -17.492188 59.171875 -23.453125 C 58.242188 -29.035156 57.640625 -34.570312 57.359375 -40.0625 C 57.078125 -45.550781 56.753906 -51.085938 56.390625 -56.671875 C 56.390625 -57.222656 56.390625 -57.914062 56.390625 -58.75 C 56.390625 -59.59375 55.921875 -60.382812 54.984375 -61.125 C 53.492188 -58.332031 51.957031 -55.632812 50.375 -53.03125 C 48.800781 -50.425781 47.175781 -47.726562 45.5 -44.9375 C 44.007812 -42.332031 42.378906 -39.820312 40.609375 -37.40625 C 38.847656 -34.988281 36.941406 -32.566406 34.890625 -30.140625 C 30.796875 -25.867188 25.679688 -23.734375 19.546875 -23.734375 C 11.722656 -23.734375 6.320312 -27.265625 3.34375 -34.328125 C 1.851562 -37.867188 0.738281 -41.5 0 -45.21875 C -0.738281 -48.9375 -1.203125 -52.660156 -1.390625 -56.390625 C -1.765625 -64.390625 -1.394531 -72.203125 -0.28125 -79.828125 C 0.832031 -87.460938 2.972656 -94.910156 6.140625 -102.171875 C 9.859375 -110.722656 14.832031 -117.976562 21.0625 -123.9375 C 27.300781 -129.894531 35.257812 -133.800781 44.9375 -135.65625 C 48.289062 -136.21875 51.5 -136.3125 54.5625 -135.9375 C 57.632812 -135.570312 60.753906 -135.015625 63.921875 -134.265625 C 65.785156 -133.890625 67.925781 -134.078125 70.34375 -134.828125 C 74.0625 -136.316406 77.921875 -137.015625 81.921875 -136.921875 C 85.921875 -136.828125 89.878906 -136.6875 93.796875 -136.5 C 94.722656 -136.5 95.367188 -136.171875 95.734375 -135.515625 C 96.109375 -134.867188 96.390625 -134.171875 96.578125 -133.421875 C 97.140625 -131.753906 97.46875 -130.035156 97.5625 -128.265625 C 97.65625 -126.492188 97.703125 -124.769531 97.703125 -123.09375 C 97.515625 -108.207031 97.046875 -93.367188 96.296875 -78.578125 C 95.554688 -63.785156 94.722656 -48.945312 93.796875 -34.0625 C 93.421875 -28.476562 93.140625 -22.941406 92.953125 -17.453125 C 92.765625 -11.960938 92.765625 -6.425781 92.953125 -0.84375 C 92.953125 0.644531 93.046875 2.226562 93.234375 3.90625 C 93.421875 5.582031 93.882812 7.257812 94.625 8.9375 C 96.113281 8.375 97.273438 7.488281 98.109375 6.28125 C 98.953125 5.070312 99.742188 4.003906 100.484375 3.078125 C 104.953125 -3.441406 109.046875 -10.191406 112.765625 -17.171875 C 116.492188 -24.148438 120.125 -31.175781 123.65625 -38.25 C 126.820312 -44.195312 129.847656 -50.191406 132.734375 -56.234375 C 135.617188 -62.285156 138.550781 -68.289062 141.53125 -74.25 C 143.007812 -77.226562 144.164062 -78.898438 145 -79.265625 C 145.84375 -79.640625 147.476562 -79.269531 149.90625 -78.15625 Z M 63.921875 -114.453125 C 64.296875 -118.359375 63.410156 -121.144531 61.265625 -122.8125 C 59.128906 -124.488281 56.203125 -124.863281 52.484375 -123.9375 C 50.992188 -123.375 49.597656 -122.675781 48.296875 -121.84375 C 46.992188 -121.007812 45.78125 -120.03125 44.65625 -118.90625 C 42.425781 -116.863281 40.472656 -114.675781 38.796875 -112.34375 C 37.117188 -110.019531 35.539062 -107.648438 34.0625 -105.234375 C 28.476562 -96.484375 24.566406 -87.316406 22.328125 -77.734375 C 20.097656 -68.148438 18.890625 -58.242188 18.703125 -48.015625 C 18.703125 -47.265625 18.65625 -46.472656 18.5625 -45.640625 C 18.46875 -44.804688 18.515625 -44.015625 18.703125 -43.265625 C 18.890625 -41.585938 18.796875 -39.722656 18.421875 -37.671875 C 18.046875 -35.628906 19.070312 -34.332031 21.5 -33.78125 C 23.539062 -33.21875 25.117188 -33.820312 26.234375 -35.59375 C 27.359375 -37.363281 28.289062 -38.988281 29.03125 -40.46875 C 35.351562 -50.894531 41.164062 -61.550781 46.46875 -72.4375 C 51.78125 -83.320312 56.851562 -94.253906 61.6875 -105.234375 C 62.800781 -108.023438 63.546875 -111.097656 63.921875 -114.453125 Z M 63.921875 -114.453125 " />
			</g>
		</g>
	</g>
	<g fill="#ffffff" fill-opacity="1">
		<g transform="translate(716.874329, 650.454298)">
			<g>
				<path d="M -9.765625 -92.953125 C -9.953125 -96.671875 -10.140625 -100.34375 -10.328125 -103.96875 C -10.515625 -107.601562 -10.703125 -110.722656 -10.890625 -113.328125 C -10.515625 -127.847656 -9.441406 -141.664062 -7.671875 -154.78125 C -5.910156 -167.90625 -2.890625 -180.789062 1.390625 -193.4375 C 3.441406 -199.582031 5.910156 -205.539062 8.796875 -211.3125 C 11.679688 -217.082031 15.171875 -222.476562 19.265625 -227.5 C 22.609375 -231.96875 26.421875 -235.734375 30.703125 -238.796875 C 34.984375 -241.867188 40.007812 -243.960938 45.78125 -245.078125 C 52.664062 -246.390625 58.988281 -245.507812 64.75 -242.4375 C 70.519531 -239.363281 74.800781 -234.570312 77.59375 -228.0625 C 79.644531 -223.21875 80.945312 -218.328125 81.5 -213.390625 C 82.0625 -208.460938 82.15625 -203.488281 81.78125 -198.46875 C 80.664062 -184.320312 77.503906 -170.550781 72.296875 -157.15625 C 66.335938 -142.269531 59.867188 -127.707031 52.890625 -113.46875 C 45.910156 -99.226562 37.585938 -85.691406 27.921875 -72.859375 C 26.054688 -70.253906 25.21875 -67.554688 25.40625 -64.765625 C 25.957031 -55.640625 27.164062 -46.65625 29.03125 -37.8125 C 30.894531 -28.976562 33.5 -20.28125 36.84375 -11.71875 C 36.84375 -11.351562 36.9375 -10.984375 37.125 -10.609375 C 37.3125 -10.234375 37.5 -9.859375 37.6875 -9.484375 C 42.707031 0.191406 49.3125 1.304688 57.5 -6.140625 C 59.550781 -8.191406 61.410156 -10.425781 63.078125 -12.84375 C 64.753906 -15.257812 66.335938 -17.675781 67.828125 -20.09375 C 72.484375 -28.28125 76.578125 -36.703125 80.109375 -45.359375 C 83.648438 -54.015625 87.375 -62.53125 91.28125 -70.90625 C 91.65625 -71.644531 91.976562 -72.382812 92.25 -73.125 C 92.53125 -73.875 92.859375 -74.625 93.234375 -75.375 C 94.347656 -77.789062 95.972656 -79.273438 98.109375 -79.828125 C 100.253906 -80.390625 102.441406 -79.925781 104.671875 -78.4375 C 105.609375 -77.875 106.078125 -77.035156 106.078125 -75.921875 C 105.890625 -74.992188 105.703125 -74.25 105.515625 -73.6875 C 101.609375 -63.457031 97.742188 -53.222656 93.921875 -42.984375 C 90.109375 -32.753906 85.320312 -22.984375 79.5625 -13.671875 C 78.4375 -12.003906 77.269531 -10.378906 76.0625 -8.796875 C 74.851562 -7.210938 73.691406 -5.675781 72.578125 -4.1875 C 68.296875 1.207031 63.410156 4.925781 57.921875 6.96875 C 52.429688 9.019531 46.335938 9.675781 39.640625 8.9375 C 31.078125 8.1875 24.097656 4.460938 18.703125 -2.234375 C 15.171875 -6.703125 12.097656 -11.445312 9.484375 -16.46875 C 6.878906 -21.488281 4.648438 -26.695312 2.796875 -32.09375 C -0.742188 -41.957031 -3.488281 -51.960938 -5.4375 -62.109375 C -7.394531 -72.253906 -8.835938 -82.535156 -9.765625 -92.953125 Z M 22.609375 -94.625 C 22.609375 -94.070312 22.703125 -93.421875 22.890625 -92.671875 C 23.078125 -91.929688 23.726562 -91.1875 24.84375 -90.4375 C 25.769531 -91.925781 26.601562 -93.367188 27.34375 -94.765625 C 28.09375 -96.160156 28.84375 -97.507812 29.59375 -98.8125 C 33.3125 -105.507812 36.75 -112.300781 39.90625 -119.1875 C 43.070312 -126.070312 46.144531 -133.050781 49.125 -140.125 C 52.851562 -149.425781 55.878906 -158.914062 58.203125 -168.59375 C 60.523438 -178.269531 61.96875 -188.132812 62.53125 -198.1875 C 62.71875 -203.03125 62.4375 -207.726562 61.6875 -212.28125 C 60.945312 -216.84375 59.457031 -221.359375 57.21875 -225.828125 C 53.6875 -232.898438 49.6875 -233.175781 45.21875 -226.65625 C 43.726562 -224.425781 42.425781 -222.144531 41.3125 -219.8125 C 40.195312 -217.488281 39.175781 -215.117188 38.25 -212.703125 C 31.175781 -193.535156 26.519531 -174.132812 24.28125 -154.5 C 22.050781 -134.875 21.492188 -114.914062 22.609375 -94.625 Z M 22.609375 -94.625 " />
			</g>
		</g>
	</g>
</svg>
